v 0.00000000 2500.00000000 0.00000000
v 0.00000000 2500.00000000 0.00000000
v 0.00000000 2500.00000000 0.00000000
v 0.00000000 2500.00000000 0.00000000
v 0.00000000 2500.00000000 0.00000000
v 0.00000000 2500.00000000 0.00000000
v 0.00000000 2500.00000000 0.00000000
v 0.00000000 2500.00000000 0.00000000
v 0.00000000 2500.00000000 0.00000000
v 0.00000000 2500.00000000 0.00000000
v 0.00000000 2500.00000000 0.00000000
v 0.00000000 2500.00000000 0.00000000
v 0.00000000 2500.00000000 0.00000000
v 0.00000000 2500.00000000 0.00000000
v 0.00000000 2500.00000000 0.00000000
v 0.00000000 2500.00000000 0.00000000
v 0.00000000 2500.00000000 0.00000000
v 0.00000000 2500.00000000 0.00000000
v 0.00000000 2500.00000000 0.00000000
v 0.00000000 2500.00000000 0.00000000
v 0.00000000 2500.00000000 0.00000000
v 0.00000000 2500.00000000 0.00000000
v 0.00000000 2500.00000000 0.00000000
v 0.00000000 2500.00000000 0.00000000
v 0.00000000 2500.00000000 0.00000000
v 500.00000000 0.00000000 0.00000000
v 482.96292114 0.00000000 129.40951538
v 433.01269531 0.00000000 250.00000000
v 353.55337524 0.00000000 353.55337524
v 249.99998474 0.00000000 433.01272583
v 129.40953064 0.00000000 482.96292114
v -0.00002186 0.00000000 500.00000000
v -129.40957642 0.00000000 482.96292114
v -250.00003052 0.00000000 433.01269531
v -353.55337524 0.00000000 353.55337524
v -433.01269531 0.00000000 250.00003052
v -482.96292114 0.00000000 129.40946960
v -500.00000000 0.00000000 -0.00004371
v -482.96292114 0.00000000 -129.40953064
v -433.01263428 0.00000000 -250.00009155
v -353.55331421 0.00000000 -353.55343628
v -249.99995422 0.00000000 -433.01272583
v -129.40948486 0.00000000 -482.96292114
v 0.00000596 0.00000000 -500.00000000
v 129.40950012 0.00000000 -482.96292114
v 249.99995422 0.00000000 -433.01272583
v 353.55349731 0.00000000 -353.55325317
v 433.01278687 0.00000000 -249.99987793
v 482.96292114 0.00000000 -129.40942383
v 500.00000000 0.00000000 0.00008742
v 0.00000000 -2500.00000000 0.00000000
v 0.00000000 -2500.00000000 0.00000000
v 0.00000000 -2500.00000000 0.00000000
v 0.00000000 -2500.00000000 0.00000000
v 0.00000000 -2500.00000000 0.00000000
v 0.00000000 -2500.00000000 0.00000000
v 0.00000000 -2500.00000000 0.00000000
v 0.00000000 -2500.00000000 0.00000000
v 0.00000000 -2500.00000000 0.00000000
v 0.00000000 -2500.00000000 0.00000000
v 0.00000000 -2500.00000000 0.00000000
v 0.00000000 -2500.00000000 0.00000000
v 0.00000000 -2500.00000000 0.00000000
v 0.00000000 -2500.00000000 0.00000000
v 0.00000000 -2500.00000000 0.00000000
v 0.00000000 -2500.00000000 0.00000000
v 0.00000000 -2500.00000000 0.00000000
v 0.00000000 -2500.00000000 0.00000000
v 0.00000000 -2500.00000000 0.00000000
v 0.00000000 -2500.00000000 0.00000000
v 0.00000000 -2500.00000000 0.00000000
v 0.00000000 -2500.00000000 0.00000000
v 0.00000000 -2500.00000000 0.00000000
v 0.00000000 -2500.00000000 0.00000000
v 0.00000000 -2500.00000000 0.00000000
v -7871592448.00000000 -7871592448.00000000 -7871592448.00000000
v -7865041408.00000000 -7873427968.00000000 -7875262464.00000000
v -125043712.00000000 -125043712.00000000 -124974112.00000000
v -124994504.00000000 -124965920.00000000 -124955680.00000000
v -7870806016.00000000 -7875524608.00000000 -7871854592.00000000
v -7867793408.00000000 -7863599616.00000000 -7860323840.00000000
v -7860323840.00000000 -125043712.00000000 -125127632.00000000
v -125043712.00000000 -125043712.00000000 -125129792.00000000
v -125043624.00000000 -125043688.00000000 -125043776.00000000
v -7871592448.00000000 -7872247808.00000000 -7874476032.00000000
v -7875262464.00000000 -7875262464.00000000 -7875262464.00000000
v -125096928.00000000 -125164472.00000000 -125164472.00000000
v -125010824.00000000 -125053896.00000000 -125107232.00000000
v -7860975616.00000000 -7860975616.00000000 -7860975616.00000000
v -7860975616.00000000 -7867793408.00000000 -7863599616.00000000
v -7864517120.00000000 -7860323840.00000000 -124920896.00000000
v -124920896.00000000 -124920896.00000000 -124920896.00000000
v -125119280.00000000 -125090608.00000000 -125070128.00000000
v -7871592448.00000000 -7871592448.00000000 -7870806016.00000000
v -7873427968.00000000 -7865041408.00000000 -7862682624.00000000
v -125043712.00000000 -125096928.00000000 -125150144.00000000
v -124955712.00000000 -124955712.00000000 -124955712.00000000
v -125129520.00000000 -7866087424.00000000 -7868577792.00000000
v -7863859200.00000000 -7866087424.00000000 -7867793408.00000000
v -7875262464.00000000 -7875262464.00000000 -7875262464.00000000
v -125043712.00000000 -124974112.00000000 -124920896.00000000
v -125031456.00000000 -125031456.00000000 -125004744.00000000
v -7872247808.00000000 -7873296384.00000000 -7875000320.00000000
v -7875262464.00000000 -7873427968.00000000 -7865041408.00000000
v -125164472.00000000 -125080552.00000000 -125096928.00000000
v -125043712.00000000 -125129520.00000000 -125129608.00000000
v -125070584.00000000 -125044048.00000000 -7866087424.00000000
v -7860975616.00000000 -7860975616.00000000 -7860975616.00000000
v -7870544896.00000000 -7862158336.00000000 -7860323840.00000000
v -124920896.00000000 -124920896.00000000 -125058032.00000000
vn 0.00000000 0.00000000 0.00000000
vn -0.97251034 -0.19450209 -0.12803337
vn -0.90623528 -0.19450206 -0.37537500
vn -0.77820194 -0.19450209 -0.59713548
vn -0.59713554 -0.19450207 -0.77820176
vn -0.37537491 -0.19450207 -0.90623534
vn -0.12803333 -0.19450207 -0.97251034
vn 0.12803331 -0.19450207 -0.97251040
vn 0.37537515 -0.19450209 -0.90623534
vn 0.59713554 -0.19450206 -0.77820176
vn 0.77820176 -0.19450204 -0.59713554
vn 0.90623540 -0.19450206 -0.37537485
vn 0.97251034 -0.19450207 -0.12803337
vn 0.97251040 -0.19450207 0.12803338
vn 0.90623528 -0.19450207 0.37537524
vn 0.77820176 -0.19450204 0.59713554
vn 0.59713537 -0.19450207 0.77820200
vn 0.37537488 -0.19450207 0.90623546
vn 0.12803338 -0.19450207 0.97251040
vn -0.12803337 -0.19450207 0.97251034
vn -0.37537491 -0.19450207 0.90623534
vn -0.59713560 -0.19450207 0.77820182
vn -0.77820200 -0.19450206 0.59713531
vn -0.90623552 -0.19450207 0.37537456
vn -0.97251034 -0.19450207 0.12803337
vn -0.97251034 0.00000000 -0.12803337
vn -0.93937278 0.00000000 -0.25170419
vn -0.84221864 0.00000001 -0.48625523
vn -0.68766874 0.00000001 -0.68766862
vn -0.48625520 0.00000001 -0.84221852
vn -0.25170410 0.00000001 -0.93937278
vn -0.00000001 0.00000001 -0.97251028
vn 0.25170422 0.00000001 -0.93937290
vn 0.48625532 0.00000000 -0.84221858
vn 0.68766868 0.00000000 -0.68766868
vn 0.84221858 0.00000000 -0.48625517
vn 0.93937284 0.00000001 -0.25170410
vn 0.97251028 0.00000001 0.00000001
vn 0.93937284 0.00000001 0.25170431
vn 0.84221852 0.00000001 0.48625541
vn 0.68766850 0.00000001 0.68766880
vn 0.48625511 0.00000001 0.84221870
vn 0.25170410 0.00000001 0.93937284
vn 0.00000001 0.00000001 0.97251034
vn -0.25170416 0.00000001 0.93937278
vn -0.48625523 0.00000001 0.84221858
vn -0.68766880 0.00000001 0.68766850
vn -0.84221870 0.00000001 0.48625493
vn -0.93937290 0.00000001 0.25170398
vn -0.97251034 0.00000000 0.12803337
vn -0.97251034 0.19450209 -0.12803337
vn -0.90623528 0.19450206 -0.37537500
vn -0.77820194 0.19450209 -0.59713548
vn -0.59713554 0.19450207 -0.77820176
vn -0.37537491 0.19450207 -0.90623534
vn -0.12803333 0.19450207 -0.97251034
vn 0.12803331 0.19450207 -0.97251040
vn 0.37537515 0.19450209 -0.90623534
vn 0.59713554 0.19450206 -0.77820176
vn 0.77820176 0.19450204 -0.59713554
vn 0.90623540 0.19450206 -0.37537485
vn 0.97251034 0.19450207 -0.12803337
vn 0.97251040 0.19450207 0.12803338
vn 0.90623528 0.19450207 0.37537524
vn 0.77820176 0.19450204 0.59713554
vn 0.59713537 0.19450207 0.77820200
vn 0.37537488 0.19450207 0.90623546
vn 0.12803338 0.19450207 0.97251040
vn -0.12803337 0.19450207 0.97251034
vn -0.37537491 0.19450207 0.90623534
vn -0.59713560 0.19450207 0.77820182
vn -0.77820200 0.19450206 0.59713531
vn -0.90623552 0.19450207 0.37537456
vn -0.97251034 0.19450207 0.12803337
vn 0.00000000 0.00000000 0.00000000
vn 0.00000000 0.00000000 0.00000000
vn 0.00000000 0.00000000 0.00000000
vn 0.00000000 0.00000000 0.00000000
vn 0.00000000 0.00000000 0.00000000
vn 0.00000000 0.00000000 0.00000000
vn 0.00000000 0.00000000 0.00000000
vn 0.00000000 0.00000000 0.00000000
vn 0.00000000 0.00000000 0.00000000
vn 0.00000000 0.00000000 0.00000000
vn 0.00000000 0.00000000 0.00000000
vn 0.00000000 0.00000000 0.00000000
vn 0.00000000 0.00000000 0.00000000
vn 0.00000000 0.00000000 0.00000000
vn 0.00000000 0.00000000 0.00000000
vn 0.00000000 0.00000000 0.00000000
vn 0.00000000 0.00000000 0.00000000
vn 0.00000000 0.00000000 0.00000000
vn 0.00000000 0.00000000 0.00000000
vn 0.00000000 0.00000000 0.00000000
vn 0.00000000 0.00000000 0.00000000
vn 0.00000000 0.00000000 0.00000000
vn 0.00000000 0.00000000 0.00000000
vn 0.00000000 0.00000000 0.00000000
vn 0.00000000 0.00000000 0.00000000
vn 0.00000000 0.00000000 0.00000000
vn 0.00000000 0.00000000 0.00000000
vn 0.00000000 0.00000000 0.00000000
vn 0.00000000 0.00000000 0.00000000
vn 0.00000000 0.00000000 0.00000000
vn 0.00000000 0.00000000 0.00000000
vn 0.00000000 0.00000000 0.00000000
vn 0.00000000 0.00000000 0.00000000
vn 0.00000000 0.00000000 0.00000000
vn 0.00000000 0.00000000 0.00000000
vn 0.00000000 0.00000000 0.00000000
f 1//1 26//26 2//2
f 26//26 27//27 2//2
f 2//2 27//27 3//3
f 27//27 28//28 3//3
f 3//3 28//28 4//4
f 28//28 29//29 4//4
f 4//4 29//29 5//5
f 29//29 30//30 5//5
f 5//5 30//30 6//6
f 30//30 31//31 6//6
f 6//6 31//31 7//7
f 31//31 32//32 7//7
f 7//7 32//32 8//8
f 32//32 33//33 8//8
f 8//8 33//33 9//9
f 33//33 34//34 9//9
f 9//9 34//34 10//10
f 34//34 35//35 10//10
f 10//10 35//35 11//11
f 35//35 36//36 11//11
f 11//11 36//36 12//12
f 36//36 37//37 12//12
f 12//12 37//37 13//13
f 37//37 38//38 13//13
f 13//13 38//38 14//14
f 38//38 39//39 14//14
f 14//14 39//39 15//15
f 39//39 40//40 15//15
f 15//15 40//40 16//16
f 40//40 41//41 16//16
f 16//16 41//41 17//17
f 41//41 42//42 17//17
f 17//17 42//42 18//18
f 42//42 43//43 18//18
f 18//18 43//43 19//19
f 43//43 44//44 19//19
f 19//19 44//44 20//20
f 44//44 45//45 20//20
f 20//20 45//45 21//21
f 45//45 46//46 21//21
f 21//21 46//46 22//22
f 46//46 47//47 22//22
f 22//22 47//47 23//23
f 47//47 48//48 23//23
f 23//23 48//48 24//24
f 48//48 49//49 24//24
f 24//24 49//49 25//25
f 49//49 50//50 25//25
f 26//26 51//51 27//27
f 51//51 52//52 27//27
f 27//27 52//52 28//28
f 52//52 53//53 28//28
f 28//28 53//53 29//29
f 53//53 54//54 29//29
f 29//29 54//54 30//30
f 54//54 55//55 30//30
f 30//30 55//55 31//31
f 55//55 56//56 31//31
f 31//31 56//56 32//32
f 56//56 57//57 32//32
f 32//32 57//57 33//33
f 57//57 58//58 33//33
f 33//33 58//58 34//34
f 58//58 59//59 34//34
f 34//34 59//59 35//35
f 59//59 60//60 35//35
f 35//35 60//60 36//36
f 60//60 61//61 36//36
f 36//36 61//61 37//37
f 61//61 62//62 37//37
f 37//37 62//62 38//38
f 62//62 63//63 38//38
f 38//38 63//63 39//39
f 63//63 64//64 39//39
f 39//39 64//64 40//40
f 64//64 65//65 40//40
f 40//40 65//65 41//41
f 65//65 66//66 41//41
f 41//41 66//66 42//42
f 66//66 67//67 42//42
f 42//42 67//67 43//43
f 67//67 68//68 43//43
f 43//43 68//68 44//44
f 68//68 69//69 44//44
f 44//44 69//69 45//45
f 69//69 70//70 45//45
f 45//45 70//70 46//46
f 70//70 71//71 46//46
f 46//46 71//71 47//47
f 71//71 72//72 47//47
f 47//47 72//72 48//48
f 72//72 73//73 48//48
f 48//48 73//73 49//49
f 73//73 74//74 49//49
f 49//49 74//74 50//50
f 74//74 75//75 50//50
